<?xml version="1.0" encoding="UTF-8" standalone="no"?>
<svg
   xmlns:dc="http://purl.org/dc/elements/1.1/"
   xmlns:cc="http://creativecommons.org/ns#"
   xmlns:rdf="http://www.w3.org/1999/02/22-rdf-syntax-ns#"
   xmlns:svg="http://www.w3.org/2000/svg"
   xmlns="http://www.w3.org/2000/svg"
   xmlns:sodipodi="http://sodipodi.sourceforge.net/DTD/sodipodi-0.dtd"
   xmlns:inkscape="http://www.inkscape.org/namespaces/inkscape"
   width="47.5"
   height="47.5"
   viewBox="0 0 38 38"
   id="svg2"
   version="1.1"
   inkscape:version="0.91 r13725"
   sodipodi:docname="info.svg">
  <metadata
     id="metadata10">
    <rdf:RDF>
      <cc:Work
         rdf:about="">
        <dc:format>image/svg+xml</dc:format>
        <dc:type
           rdf:resource="http://purl.org/dc/dcmitype/StillImage" />
        <dc:title></dc:title>
      </cc:Work>
    </rdf:RDF>
  </metadata>
  <defs
     id="defs8" />
  <sodipodi:namedview
     pagecolor="#ffffff"
     bordercolor="#666666"
     borderopacity="1"
     objecttolerance="10"
     gridtolerance="10"
     guidetolerance="10"
     inkscape:pageopacity="0"
     inkscape:pageshadow="2"
     inkscape:window-width="878"
     inkscape:window-height="884"
     id="namedview6"
     showgrid="false"
     inkscape:zoom="4.9684211"
     inkscape:cx="-11.069915"
     inkscape:cy="23.75"
     inkscape:window-x="0"
     inkscape:window-y="1038"
     inkscape:window-maximized="0"
     inkscape:current-layer="svg2" />
  <path
     style="fill:#79d073"
     d="M 8.3125 4.75 C 6.339844 4.75 4.75 6.339844 4.75 8.3125 L 4.75 29.6875 C 4.75 31.660156 6.339844 33.25 8.3125 33.25 L 29.6875 33.25 C 31.660156 33.25 33.25 31.660156 33.25 29.6875 L 33.25 8.3125 C 33.25 6.339844 31.660156 4.75 29.6875 4.75 Z M 16.625 8.3125 L 21.375 8.3125 L 21.375 13.0625 L 16.625 13.0625 Z M 15.4375 15.4375 L 21.375 15.4375 L 21.375 26.125 L 23.75 26.125 L 23.75 28.5 L 14.25 28.5 L 14.25 26.125 L 16.625 26.125 L 16.625 17.8125 L 15.4375 17.8125 Z "
     id="path4" />
</svg>
